<svg width="259" height="82" viewBox="0 0 259 82" fill="none" xmlns="http://www.w3.org/2000/svg">
<path d="M129.098 32.52C130.72 32.52 132.166 32.8567 133.438 33.5302C134.736 34.2037 135.746 35.2015 136.469 36.5235C137.217 37.8455 137.592 39.442 137.592 41.3128V53.473H133.364V41.9488C133.364 40.103 132.902 38.6936 131.979 37.7208C131.056 36.723 129.797 36.2242 128.2 36.2242C126.604 36.2242 125.332 36.723 124.384 37.7208C123.461 38.6936 122.999 40.103 122.999 41.9488V53.473H118.771V41.9488C118.771 40.103 118.31 38.6936 117.387 37.7208C116.464 36.723 115.204 36.2242 113.608 36.2242C112.011 36.2242 110.739 36.723 109.791 37.7208C108.869 38.6936 108.407 40.103 108.407 41.9488V53.473H104.142V32.8567H108.407V35.2139C109.105 34.3658 109.991 33.7048 111.064 33.2309C112.136 32.7569 113.284 32.52 114.506 32.52C116.152 32.52 117.624 32.8692 118.921 33.5676C120.218 34.2661 121.216 35.2763 121.914 36.5983C122.538 35.3511 123.511 34.3658 124.833 33.6424C126.155 32.8941 127.577 32.52 129.098 32.52ZM161.578 32.8567L148.931 63.1638H144.516L148.707 53.1363L140.587 32.8567H145.339L151.139 48.5715L157.163 32.8567H161.578ZM173.29 27.4688C176.059 27.4688 178.479 28.0051 180.549 29.0777C182.644 30.1253 184.253 31.6469 185.376 33.6424C186.523 35.613 187.097 37.9204 187.097 40.5644C187.097 43.2085 186.523 45.5034 185.376 47.449C184.253 49.3946 182.644 50.8913 180.549 51.9389C178.479 52.9617 176.059 53.473 173.29 53.473H164.797V27.4688H173.29ZM173.29 49.9933C176.333 49.9933 178.666 49.1701 180.287 47.5238C181.908 45.8775 182.719 43.5577 182.719 40.5644C182.719 37.5462 181.908 35.189 180.287 33.4928C178.666 31.7966 176.333 30.9485 173.29 30.9485H169.062V49.9933H173.29ZM195.59 35.85C196.213 34.8023 197.036 33.9917 198.059 33.418C199.107 32.8193 200.341 32.52 201.763 32.52V36.9351H200.678C199.007 36.9351 197.735 37.3591 196.862 38.2072C196.014 39.0553 195.59 40.527 195.59 42.6223V53.473H191.324V32.8567H195.59V35.85ZM207.854 30.1253C207.081 30.1253 206.432 29.8634 205.909 29.3396C205.385 28.8158 205.123 28.1672 205.123 27.394C205.123 26.6207 205.385 25.9721 205.909 25.4483C206.432 24.9245 207.081 24.6626 207.854 24.6626C208.603 24.6626 209.239 24.9245 209.762 25.4483C210.286 25.9721 210.548 26.6207 210.548 27.394C210.548 28.1672 210.286 28.8158 209.762 29.3396C209.239 29.8634 208.603 30.1253 207.854 30.1253ZM209.95 32.8567V53.473H205.684V32.8567H209.95ZM223.519 49.6566L229.356 32.8567H233.884L226.026 53.473H220.938L213.118 32.8567H217.682L223.519 49.6566ZM256.003 42.6597C256.003 43.433 255.953 44.1314 255.853 44.755H240.101C240.226 46.4014 240.837 47.7234 241.934 48.7212C243.032 49.7189 244.379 50.2178 245.975 50.2178C248.27 50.2178 249.892 49.2575 250.84 47.3368H255.442C254.818 49.2325 253.683 50.7915 252.037 52.0138C250.415 53.2111 248.395 53.8098 245.975 53.8098C244.005 53.8098 242.234 53.3732 240.662 52.5002C239.116 51.6022 237.894 50.355 236.996 48.7586C236.122 47.1372 235.686 45.2664 235.686 43.1461C235.686 41.0259 236.11 39.1676 236.958 37.5711C237.831 35.9498 239.041 34.7026 240.587 33.8295C242.159 32.9565 243.955 32.52 245.975 32.52C247.921 32.52 249.655 32.944 251.176 33.7921C252.698 34.6402 253.883 35.8375 254.731 37.3841C255.579 38.9057 256.003 40.6642 256.003 42.6597ZM251.55 41.3128C251.525 39.7413 250.964 38.4816 249.867 37.5337C248.769 36.5859 247.41 36.1119 245.788 36.1119C244.317 36.1119 243.057 36.5859 242.009 37.5337C240.962 38.4567 240.338 39.7163 240.138 41.3128H251.55Z" fill="white"/>
<rect opacity="0.2" width="74.8323" height="74.8323" rx="37.4161" fill="white"/>
<rect x="32.7391" y="31.1801" width="49.8882" height="49.8882" rx="24.9441" fill="white"/>
</svg>
