<svg width="166" height="52" viewBox="0 0 166 52" fill="none" xmlns="http://www.w3.org/2000/svg">
<path d="M82.808 20.56C83.848 20.56 84.776 20.776 85.592 21.208C86.424 21.64 87.072 22.28 87.536 23.128C88.016 23.976 88.256 25 88.256 26.2V34H85.544V26.608C85.544 25.424 85.248 24.52 84.656 23.896C84.064 23.256 83.256 22.936 82.232 22.936C81.208 22.936 80.392 23.256 79.784 23.896C79.192 24.52 78.896 25.424 78.896 26.608V34H76.184V26.608C76.184 25.424 75.888 24.52 75.296 23.896C74.704 23.256 73.896 22.936 72.872 22.936C71.848 22.936 71.032 23.256 70.424 23.896C69.832 24.52 69.536 25.424 69.536 26.608V34H66.8V20.776H69.536V22.288C69.984 21.744 70.552 21.32 71.24 21.016C71.928 20.712 72.664 20.56 73.448 20.56C74.504 20.56 75.448 20.784 76.28 21.232C77.112 21.68 77.752 22.328 78.2 23.176C78.6 22.376 79.224 21.744 80.072 21.28C80.92 20.8 81.832 20.56 82.808 20.56ZM103.642 20.776L95.5295 40.216H92.6975L95.3855 33.784L90.1775 20.776H93.2255L96.9455 30.856L100.81 20.776H103.642ZM111.154 17.32C112.93 17.32 114.482 17.664 115.81 18.352C117.154 19.024 118.186 20 118.906 21.28C119.642 22.544 120.01 24.024 120.01 25.72C120.01 27.416 119.642 28.888 118.906 30.136C118.186 31.384 117.154 32.344 115.81 33.016C114.482 33.672 112.93 34 111.154 34H105.706V17.32H111.154ZM111.154 31.768C113.106 31.768 114.602 31.24 115.642 30.184C116.682 29.128 117.202 27.64 117.202 25.72C117.202 23.784 116.682 22.272 115.642 21.184C114.602 20.096 113.106 19.552 111.154 19.552H108.442V31.768H111.154ZM125.458 22.696C125.858 22.024 126.386 21.504 127.042 21.136C127.714 20.752 128.506 20.56 129.418 20.56V23.392H128.722C127.65 23.392 126.834 23.664 126.274 24.208C125.73 24.752 125.458 25.696 125.458 27.04V34H122.722V20.776H125.458V22.696ZM133.325 19.024C132.829 19.024 132.413 18.856 132.077 18.52C131.741 18.184 131.573 17.768 131.573 17.272C131.573 16.776 131.741 16.36 132.077 16.024C132.413 15.688 132.829 15.52 133.325 15.52C133.805 15.52 134.213 15.688 134.549 16.024C134.885 16.36 135.053 16.776 135.053 17.272C135.053 17.768 134.885 18.184 134.549 18.52C134.213 18.856 133.805 19.024 133.325 19.024ZM134.669 20.776V34H131.933V20.776H134.669ZM143.373 31.552L147.117 20.776H150.021L144.981 34H141.717L136.701 20.776H139.629L143.373 31.552ZM164.209 27.064C164.209 27.56 164.177 28.008 164.113 28.408H154.009C154.089 29.464 154.481 30.312 155.185 30.952C155.889 31.592 156.753 31.912 157.777 31.912C159.249 31.912 160.289 31.296 160.897 30.064H163.849C163.449 31.28 162.721 32.28 161.665 33.064C160.625 33.832 159.329 34.216 157.777 34.216C156.513 34.216 155.377 33.936 154.369 33.376C153.377 32.8 152.593 32 152.017 30.976C151.457 29.936 151.177 28.736 151.177 27.376C151.177 26.016 151.449 24.824 151.993 23.8C152.553 22.76 153.329 21.96 154.321 21.4C155.329 20.84 156.481 20.56 157.777 20.56C159.025 20.56 160.137 20.832 161.113 21.376C162.089 21.92 162.849 22.688 163.393 23.68C163.937 24.656 164.209 25.784 164.209 27.064ZM161.353 26.2C161.337 25.192 160.977 24.384 160.273 23.776C159.569 23.168 158.697 22.864 157.657 22.864C156.713 22.864 155.905 23.168 155.233 23.776C154.561 24.368 154.161 25.176 154.033 26.2H161.353Z" fill="#FA7275"/>
<rect opacity="0.2" width="48" height="48" rx="24" fill="#FA7275"/>
<rect x="21" y="20" width="32" height="32" rx="16" fill="#FA7275"/>
</svg>
